<svg width="850" height="254" viewBox="0 0 850 254" fill="none" xmlns="http://www.w3.org/2000/svg">
<g filter="url(#filter0_d_75_58)">
<path d="M4 25C4 11.1929 15.1929 0 29 0H821C834.807 0 846 11.1929 846 25V221C846 234.807 834.807 246 821 246H29C15.1929 246 4 234.807 4 221V25Z" fill="white"/>
<path d="M7.5 25C7.5 13.0736 17.0736 3.5 29 3.5H821C832.926 3.5 842.5 13.0736 842.5 25V221C842.5 232.926 832.926 242.5 821 242.5H29C17.0736 242.5 7.5 232.926 7.5 221V25Z" stroke="url(#moving_gradient)" stroke-width="7" filter="url(#glow)"/>
</g>
<defs>
<filter id="filter0_d_75_58" x="0" y="0" width="850" height="254" filterUnits="userSpaceOnUse" color-interpolation-filters="sRGB">
<feFlood flood-opacity="0" result="BackgroundImageFix"/>
<feColorMatrix in="SourceAlpha" type="matrix" values="0 0 0 0 0 0 0 0 0 0 0 0 0 0 0 0 0 0 127 0" result="hardAlpha"/>
<feOffset dy="4"/>
<feGaussianBlur stdDeviation="2"/>
<feComposite in2="hardAlpha" operator="out"/>
<feColorMatrix type="matrix" values="0 0 0 0 0 0 0 0 0 0 0 0 0 0 0 0 0 0 0.25 0"/>
<feBlend mode="normal" in2="BackgroundImageFix" result="effect1_dropShadow_75_58"/>
<feBlend mode="normal" in="SourceGraphic" in2="effect1_dropShadow_75_58" result="shape"/>
</filter>
<filter id="glow">
<feGaussianBlur stdDeviation="3.5" result="coloredBlur"/>
<feMerge>
<feMergeNode in="coloredBlur"/>
<feMergeNode in="SourceGraphic"/>
</feMerge>
</filter>
<linearGradient id="moving_gradient" x1="0%" y1="0%" x2="100%" y2="0%">
<stop offset="0%" stop-color="#4A49A3">
<animate attributeName="stop-color" values="#4A49A3; #6B23FF; #FF1493; #4A49A3" dur="3s" repeatCount="indefinite"/>
</stop>
<stop offset="100%" stop-color="#FF1493">
<animate attributeName="stop-color" values="#FF1493; #4A49A3; #6B23FF; #FF1493" dur="3s" repeatCount="indefinite"/>
</stop>
</linearGradient>
</defs>
</svg>
